<svg width="9" height="11" viewBox="0 0 9 11" fill="none" xmlns="http://www.w3.org/2000/svg">
<path fill-rule="evenodd" clip-rule="evenodd" d="M4.5 1C3.57174 1 2.6815 1.36875 2.02513 2.02513C1.36875 2.6815 1 3.57174 1 4.5C1 5.85459 1.88287 7.17712 2.86298 8.21168C3.34281 8.71817 3.82433 9.133 4.18646 9.42136C4.30589 9.51645 4.41188 9.59745 4.5 9.66308C4.58812 9.59745 4.69411 9.51645 4.81354 9.42136C5.17567 9.133 5.65719 8.71817 6.13702 8.21168C7.11713 7.17712 8 5.85459 8 4.5C8 3.57174 7.63125 2.6815 6.97487 2.02513C6.3185 1.36875 5.42826 1 4.5 1ZM4.5 10.2778C4.22265 10.6938 4.22253 10.6937 4.22239 10.6936L4.22104 10.6927L4.21798 10.6907L4.20759 10.6836L4.17039 10.6581C4.13854 10.6361 4.09288 10.604 4.03538 10.5625C3.92043 10.4794 3.75787 10.3584 3.56354 10.2036C3.17567 9.89478 2.65719 9.4485 2.13702 8.89943C1.11713 7.82288 0 6.25653 0 4.5C2.98023e-08 3.30653 0.474106 2.16193 1.31802 1.31802C2.16193 0.474106 3.30653 0 4.5 0C5.69347 0 6.83807 0.474106 7.68198 1.31802C8.52589 2.16193 9 3.30653 9 4.5C9 6.25653 7.88287 7.82288 6.86298 8.89943C6.34281 9.4485 5.82433 9.89478 5.43646 10.2036C5.24213 10.3584 5.07957 10.4794 4.96462 10.5625C4.90712 10.604 4.86146 10.6361 4.82961 10.6581L4.79241 10.6836L4.78202 10.6907L4.77896 10.6927L4.77797 10.6934C4.77783 10.6935 4.77735 10.6938 4.5 10.2778ZM4.5 10.2778L4.77797 10.6934C4.61002 10.8054 4.39034 10.8056 4.22239 10.6936L4.5 10.2778Z" fill="#111928"/>
<path d="M4.5 5.5C5.05228 5.5 5.5 5.05228 5.5 4.5C5.5 3.94772 5.05228 3.5 4.5 3.5C3.94772 3.5 3.5 3.94772 3.5 4.5C3.5 5.05228 3.94772 5.5 4.5 5.5Z" fill="#111928"/>
<path fill-rule="evenodd" clip-rule="evenodd" d="M4.4999 3.60039C4.00285 3.60039 3.5999 4.00333 3.5999 4.50039C3.5999 4.99745 4.00285 5.40039 4.4999 5.40039C4.99696 5.40039 5.3999 4.99745 5.3999 4.50039C5.3999 4.00333 4.99696 3.60039 4.4999 3.60039ZM3.3999 4.50039C3.3999 3.89288 3.89239 3.40039 4.4999 3.40039C5.10742 3.40039 5.5999 3.89288 5.5999 4.50039C5.5999 5.1079 5.10742 5.60039 4.4999 5.60039C3.89239 5.60039 3.3999 5.1079 3.3999 4.50039Z" fill="#111928"/>
</svg>
